<?xml version="1.0" encoding="utf-8"?>
<!-- Generator: Adobe Illustrator 16.0.0, SVG Export Plug-In . SVG Version: 6.00 Build 0)  -->
<!DOCTYPE svg PUBLIC "-//W3C//DTD SVG 1.1//EN" "http://www.w3.org/Graphics/SVG/1.1/DTD/svg11.dtd">
<svg version="1.1" id="Layer_1" xmlns="http://www.w3.org/2000/svg" xmlns:xlink="http://www.w3.org/1999/xlink" x="0px" y="0px"
	 width="1889.049px" height="700px" viewBox="0 0 1889.049 700" enable-background="new 0 0 1889.049 700" xml:space="preserve">
<g>
	<path fill="#0F5FA7" d="M883.081,248.71c-34.105,0-46.844,16.025-46.844,32.463c0,53.828,149.982,28.763,149.982,131.491
		c0,50.131-35.339,81.359-103.139,81.359c-48.898,0-87.935-24.242-103.96-50.131c-2.055-3.287-3.287-7.396-3.287-11.506
		c0-12.326,9.861-22.189,21.777-22.189c9.041,0,13.971,4.932,18.08,9.041c17.259,17.258,39.037,31.229,67.39,31.229
		c37.394,0,55.474-12.326,55.474-37.803c0-59.994-149.982-32.463-149.982-131.491c0-40.681,29.174-75.197,94.509-75.197
		c41.091,0,76.841,15.202,93.276,38.624c2.466,3.698,4.109,8.22,4.109,13.149c0,11.918-9.861,21.779-22.189,21.779
		c-5.752,0-11.505-3.287-17.668-9.04C927.871,258.161,906.503,248.71,883.081,248.71z"/>
	<path fill="#0F5FA7" d="M1071.688,382.256v85.471c0,13.148-10.684,23.832-23.833,23.832c-13.148,0-23.832-10.684-23.832-23.832
		V235.561c0-13.149,10.684-23.833,23.832-23.833h78.485c55.473,0,86.701,39.447,86.701,85.881c0,39.036-23.832,76.84-63.28,81.772
		l60.815,73.963c3.697,4.932,4.931,9.863,4.931,14.383c0,13.148-10.685,23.832-23.833,23.832c-6.986,0-14.382-3.287-18.49-8.629
		l-74.787-100.674H1071.688z M1071.688,254.463v85.88h55.474c25.477,0,36.571-20.956,36.571-42.734
		c0-22.189-11.095-43.146-37.805-43.146H1071.688z"/>
	<path fill="#0F5FA7" d="M1363.435,433.209l-64.513-114.643v149.571c0,12.738-10.684,23.422-23.422,23.422
		s-23.422-10.684-23.422-23.422V231.863c0-12.737,10.684-23.422,23.422-23.422c10.272,0,16.847,5.753,20.956,13.148l87.113,156.147
		l87.113-156.147c4.109-7.396,10.684-13.148,20.957-13.148c12.738,0,23.422,10.685,23.422,23.422v236.274
		c0,12.738-10.684,23.422-23.422,23.422c-12.739,0-23.422-10.684-23.422-23.422V318.566l-64.514,114.643
		c-4.108,7.396-11.916,11.506-20.135,11.506S1367.544,440.605,1363.435,433.209z"/>
	<path fill="#0F5FA7" d="M1658.876,248.71c-34.105,0-46.844,16.025-46.844,32.463c0,53.828,149.981,28.763,149.981,131.491
		c0,50.131-35.337,81.359-103.138,81.359c-48.898,0-87.935-24.242-103.961-50.131c-2.055-3.287-3.287-7.396-3.287-11.506
		c0-12.326,9.862-22.189,21.778-22.189c9.041,0,13.971,4.932,18.08,9.041c17.258,17.258,39.037,31.229,67.39,31.229
		c37.393,0,55.474-12.326,55.474-37.803c0-59.994-149.982-32.463-149.982-131.491c0-40.681,29.174-75.197,94.509-75.197
		c41.091,0,76.84,15.202,93.276,38.624c2.467,3.698,4.108,8.22,4.108,13.149c0,11.918-9.861,21.779-22.188,21.779
		c-5.752,0-11.505-3.287-17.668-9.04C1703.665,258.161,1682.298,248.71,1658.876,248.71z"/>
</g>
<g>
	<path fill="#BDCCD4" d="M545.18,163.707c48.952,0,88.804,39.527,88.804,88.48c0,13.855-3.02,26.794-8.681,38.475l0.459,0.725
		l-171.687,298.78c-14.173,30.092-44.755,50.923-80.224,50.923c-35.137,0-65.504-20.452-79.842-50.105L129.783,306.102
		c-2.827-3.676-5.412-7.535-7.647-11.631c-6.888-12.6-10.804-27.059-10.804-42.438c0-48.962,39.69-88.644,88.643-88.644
		L545.18,163.707z"/>
	<path fill="#0F5FA7" d="M544.235,536.64c0,0,0.74-0.01,0.944-0.01c48.952,0,88.804-39.702,88.804-88.653
		c0-13.847-3.02-26.968-8.681-38.64l0.459-0.725L454.075,109.833c-14.173-30.093-44.755-50.924-80.224-50.924
		c-35.137,0-65.504,20.453-79.842,50.106L129.783,393.898c-2.827,3.666-5.412,7.535-7.647,11.63
		c-6.888,12.601-10.804,27.06-10.804,42.438c0,48.952,39.69,88.643,88.643,88.643L544.235,536.64z"/>
	<g>
		<g>
			<g>
				<path fill="#FFFFFF" d="M482.478,347.702c0,60.613-49.13,109.74-109.739,109.74c-60.608,0-109.74-49.127-109.74-109.74
					c0-60.603,49.132-109.74,109.74-109.74C433.348,237.962,482.478,287.1,482.478,347.702z"/>
			</g>
		</g>
		<g>
			<g>
				<circle fill="#BDCCD4" cx="372.738" cy="347.702" r="68.037"/>
			</g>
		</g>
	</g>
</g>
</svg>
